# xmcd
# 
# Track frame offsets:
#     150
#     13167
#     27715
#     41407
#     55690
#     70020
#     84905
#     98047
#     112530
#     126627
#     140765
#     154930
#     167672
#     180577
#     193537
#     206737
#     219992
#     232075
#     245045
#     258402
#     271787
# 
# Disc length: 3783
# 
# Revision: 0
# Processed by: cddbd v1.5.2PL0 Copyright (c) Steve Scherf et al.
# Submitted via: fre:ac v1.0.31
# 
DISCID=290ec515
DTITLE=Charley Patton - The Complete Recorded Works  Disc 3
DYEAR=0
DGENRE=
TTITLE0=Running Wild Blues
TTITLE1=Tell Me Man Blues
TTITLE2=Be True Be True Blues
TTITLE3=Joe Kirby
TTITLE4=Mean Black Blues
TTITLE5=Dry Well Blues
TTITLE6=Some Summer Day (Part 1)
TTITLE7=Moon Going Down
TTITLE8=Bird Nest Bound
TTITLE9=Jersey Bull Blues
TTITLE10=High Sheriff Blues
TTITLE11=Stone Pony Blues
TTITLE12=Yellow Bee
TTITLE13=Mind Reader Blues
TTITLE14=34 Blues
TTITLE15=Love My Stuff
TTITLE16=Revenue Man Blues
TTITLE17=Oh Death
TTITLE18=Troubled 'Bout My Mother
TTITLE19=Poor Me
TTITLE20=Hang It On The Wall
EXTD=
EXTT0=
EXTT1=
EXTT2=
EXTT3=
EXTT4=
EXTT5=
EXTT6=
EXTT7=
EXTT8=
EXTT9=
EXTT10=
EXTT11=
EXTT12=
EXTT13=
EXTT14=
EXTT15=
EXTT16=
EXTT17=
EXTT18=
EXTT19=
EXTT20=
PLAYORDER=
